<?xml version="1.0" standalone="no"?>
<!DOCTYPE svg PUBLIC "-//W3C//DTD SVG 20010904//EN"
 "http://www.w3.org/TR/2001/REC-SVG-20010904/DTD/svg10.dtd">
<svg version="1.0" xmlns="http://www.w3.org/2000/svg"
 width="500.000000pt" height="500.000000pt" viewBox="0 0 500.000000 500.000000"
 preserveAspectRatio="xMidYMid meet">
<metadata>
Created by potrace 1.14, written by Peter Selinger 2001-2017
</metadata>
<g transform="translate(0.000000,500.000000) scale(0.100000,-0.100000)"
fill="#000000" stroke="none">
<path d="M2430 4278 c0 -4 -9 -8 -20 -8 -11 0 -20 -5 -20 -12 0 -6 -3 -9 -6
-5 -4 3 -14 -2 -23 -11 -10 -11 -12 -12 -6 -2 5 8 -2 5 -15 -6 -14 -12 -33
-20 -42 -19 -10 2 -16 -2 -15 -8 1 -7 -4 -11 -10 -9 -7 1 -13 -2 -13 -8 0 -6
-3 -9 -7 -8 -12 2 -46 -13 -64 -29 -9 -8 -20 -13 -25 -12 -15 4 -64 -23 -64
-35 0 -6 -5 -4 -10 4 -8 12 -10 12 -10 -5 0 -17 -2 -17 -10 -5 -5 8 -10 11
-10 5 0 -5 -11 -15 -25 -22 -14 -6 -23 -7 -19 -2 3 5 -2 6 -11 3 -9 -4 -14
-13 -11 -21 4 -10 1 -11 -12 -4 -12 6 -25 5 -42 -5 -29 -15 -44 -18 -36 -6 6
10 -30 9 -40 -1 -11 -10 -26 -8 -19 2 3 6 -6 6 -24 1 -19 -5 -33 -4 -40 3 -8
8 -11 6 -11 -8 0 -12 -3 -16 -8 -9 -9 13 -43 15 -59 2 -7 -6 -14 -4 -19 3 -5
8 -3 9 6 4 9 -5 11 -4 6 4 -6 9 -14 8 -33 -4 -14 -10 -23 -13 -19 -7 3 6 -16
10 -49 10 -38 0 -53 -4 -48 -12 4 -6 -1 -5 -10 3 -9 7 -17 10 -17 6 0 -4 -6
-2 -14 4 -10 8 -16 9 -21 1 -9 -15 -28 -13 -19 3 4 6 -3 3 -16 -8 -13 -11 -20
-14 -16 -7 10 16 -25 13 -36 -3 -5 -6 -8 -6 -8 1 0 14 -48 16 -56 3 -8 -13
-25 0 -18 14 3 7 -2 3 -10 -7 -9 -11 -16 -15 -16 -10 0 5 -9 10 -20 10 -11 0
-20 -4 -20 -9 0 -5 -7 -4 -15 3 -12 10 -15 10 -15 0 0 -10 -3 -10 -15 0 -12
10 -15 10 -15 0 0 -9 -4 -9 -13 -2 -8 7 -18 7 -27 2 -9 -5 -19 -5 -27 2 -9 7
-13 7 -13 -2 0 -10 -3 -10 -14 -1 -11 9 -15 9 -19 -1 -4 -10 -6 -10 -6 1 -1
11 -4 11 -16 1 -12 -10 -15 -10 -15 0 0 9 -4 9 -17 -1 -15 -12 -16 -12 -8 1 8
13 7 13 -8 1 -13 -10 -17 -10 -17 -1 0 9 -3 10 -13 1 -10 -8 -17 -7 -25 1 -9
9 -12 9 -12 -1 0 -11 -3 -11 -15 -1 -12 10 -15 10 -15 0 0 -9 -3 -10 -13 -1
-10 8 -17 7 -25 -1 -9 -9 -12 -9 -12 1 0 11 -3 11 -15 1 -12 -10 -15 -10 -15
1 0 12 -2 12 -9 1 -4 -8 -12 -14 -16 -14 -4 0 -12 6 -16 14 -5 7 -9 8 -9 2 0
-14 -31 -14 -48 -1 -9 7 -11 6 -7 -6 4 -8 1 -18 -6 -23 -8 -4 -10 -3 -5 4 4 8
2 10 -8 6 -9 -3 -12 -12 -9 -21 4 -11 2 -14 -5 -9 -11 7 -9 -24 3 -44 3 -6 2
-10 -3 -10 -9 0 -7 -84 3 -100 3 -6 0 -10 -7 -10 -9 0 -9 -3 2 -10 10 -6 11
-10 3 -10 -9 0 -10 -7 -3 -24 5 -13 6 -27 3 -30 -4 -3 0 -6 8 -6 12 0 12 -2 0
-9 -11 -7 -12 -13 -3 -23 8 -11 8 -18 1 -25 -7 -7 -8 -17 -3 -25 5 -7 10 -37
10 -67 1 -30 7 -57 14 -61 9 -6 9 -9 -1 -12 -12 -4 -12 -7 0 -21 10 -13 10
-17 1 -17 -10 0 -10 -3 0 -15 10 -12 10 -15 -1 -15 -9 0 -10 -3 -3 -8 6 -4 12
-23 13 -42 1 -19 3 -45 4 -57 0 -13 5 -23 10 -23 5 0 4 -6 -2 -14 -9 -10 -9
-16 -1 -21 8 -5 7 -11 -2 -23 -8 -10 -9 -13 -1 -9 6 4 14 3 18 -3 3 -5 1 -10
-6 -10 -7 0 -5 -8 7 -22 10 -12 14 -18 8 -15 -18 11 -25 -21 -9 -37 11 -11 12
-16 2 -19 -9 -4 -8 -6 2 -6 11 -1 11 -4 1 -16 -10 -12 -10 -15 0 -15 8 0 11
-3 7 -6 -3 -3 -2 -17 3 -29 6 -16 5 -25 -3 -29 -9 -3 -8 -5 1 -5 7 -1 10 -5 7
-11 -3 -5 -1 -10 6 -10 8 0 8 -4 -1 -15 -9 -11 -9 -15 -1 -15 7 0 9 -5 6 -10
-4 -6 -1 -18 7 -27 11 -14 11 -16 -2 -8 -9 5 -7 -1 5 -15 11 -13 14 -20 7 -16
-10 6 -11 4 -4 -10 18 -37 31 -84 20 -78 -6 4 -6 0 0 -13 6 -11 12 -30 14 -44
2 -13 7 -30 12 -37 4 -7 5 -16 2 -19 -3 -4 2 -15 11 -26 11 -13 12 -17 4 -12
-11 6 -13 4 -6 -11 5 -10 9 -29 9 -41 1 -13 7 -23 14 -23 6 0 12 -4 12 -10 0
-5 -6 -10 -12 -10 -9 0 -10 -2 -2 -8 13 -8 33 -63 36 -99 1 -7 4 -13 8 -13 4
0 7 -7 8 -15 1 -8 3 -22 4 -30 1 -8 5 -15 10 -15 4 0 8 -11 8 -25 0 -14 5 -25
12 -25 6 0 8 -3 5 -7 -4 -3 1 -12 11 -20 9 -8 11 -12 4 -8 -6 3 -12 1 -12 -4
0 -6 5 -11 11 -11 5 0 8 -4 4 -9 -3 -5 1 -15 8 -23 8 -7 12 -19 9 -27 -3 -8 0
-11 7 -7 7 5 9 1 5 -8 -3 -9 -1 -16 5 -16 6 0 11 -7 11 -15 0 -17 16 -49 40
-79 13 -17 13 -18 0 -11 -12 7 -13 6 -3 -7 7 -8 9 -19 5 -23 -4 -5 -2 -5 5 -1
10 5 19 -9 28 -44 7 -23 19 -39 27 -34 5 3 8 0 7 -7 -1 -8 3 -27 10 -44 7 -16
13 -32 13 -35 1 -3 6 -10 12 -17 29 -33 36 -43 36 -53 0 -5 4 -10 10 -10 5 0
7 -7 4 -15 -4 -8 -2 -15 4 -15 5 0 17 -15 26 -32 33 -65 60 -101 69 -92 3 3 8
-4 12 -15 3 -12 10 -19 15 -16 5 3 22 -8 39 -24 16 -16 32 -26 35 -23 3 3 6
-2 6 -11 0 -10 5 -17 10 -17 16 0 20 -3 68 -47 25 -24 52 -43 59 -43 7 0 13
-4 13 -8 0 -5 21 -23 48 -40 26 -17 57 -40 70 -52 12 -11 22 -18 22 -15 0 3 6
1 13 -4 56 -46 76 -61 86 -61 6 0 11 -4 11 -8 0 -5 12 -15 28 -23 15 -8 29
-16 32 -19 10 -10 69 -50 74 -50 2 0 39 -22 80 -50 42 -27 77 -50 79 -50 3 0
52 -29 110 -64 58 -35 108 -61 111 -58 3 3 6 0 6 -6 0 -6 16 -16 35 -23 19 -7
35 -17 35 -21 0 -4 6 -8 13 -8 7 0 18 -5 25 -12 16 -16 52 -21 52 -7 0 5 4 8
9 4 5 -3 16 1 23 9 8 7 24 17 36 20 12 4 22 12 22 17 0 6 5 7 10 4 6 -3 10 -1
10 5 0 6 5 8 10 5 6 -3 10 -1 10 4 0 6 3 10 8 9 8 -1 45 13 52 21 3 3 25 17
50 30 25 13 56 33 69 43 13 10 30 18 37 18 8 0 14 3 14 8 0 4 23 20 50 35 28
16 50 32 50 38 0 5 9 9 20 9 11 0 20 4 20 8 0 4 20 21 45 36 25 16 45 33 45
38 0 5 4 7 8 4 5 -3 21 7 38 20 16 14 41 33 57 42 15 9 27 20 27 24 0 4 5 8
11 8 6 0 17 6 24 12 33 30 45 38 54 38 5 0 11 4 13 8 2 4 32 30 68 57 36 27
70 54 76 60 7 5 29 24 49 40 77 62 220 215 216 230 -2 4 1 11 6 14 12 8 95
144 118 196 11 22 22 42 25 45 6 6 33 63 31 68 -1 1 10 22 24 47 13 25 22 45
19 45 -4 0 -2 6 3 13 11 15 45 104 43 113 -1 4 2 10 7 13 6 5 75 201 89 256 2
6 13 46 25 90 12 44 23 89 25 100 1 11 3 22 5 25 1 3 3 10 4 15 2 6 4 12 5 15
1 3 3 14 5 25 3 11 9 43 15 70 6 28 13 68 16 90 3 22 7 51 10 65 3 14 8 43 11
65 3 22 9 48 14 58 7 11 6 17 -1 17 -6 0 -8 5 -5 10 7 12 12 37 20 105 3 28 8
68 11 90 3 22 7 60 9 85 2 25 4 45 5 45 2 0 12 109 12 135 1 121 -8 263 -18
271 -12 10 -167 15 -839 25 -348 5 -446 9 -467 20 -15 8 -30 14 -33 14 -3 0
-27 12 -53 26 -26 15 -65 36 -87 48 -22 12 -42 23 -45 26 -3 3 -18 12 -35 20
-16 8 -32 17 -35 20 -8 8 -120 60 -124 57 -2 -1 -14 7 -27 18 -13 12 -19 14
-14 5 7 -12 6 -13 -6 -3 -16 13 -79 15 -79 1z"/>
</g>
</svg>
